<svg width="180" height="64" viewBox="0 0 180 64" fill="none" xmlns="http://www.w3.org/2000/svg">
<path d="M24.055 19.8103H33.3544C33.3544 19.8103 31.1155 10.4692 37.4261 6.73093C43.7373 2.99513 55.6189 3.48029 61.7267 6.04206C67.8342 8.60354 74.6928 10.607 74.9613 12.9578C75.2338 15.3146 74.8264 15.9349 74.8264 15.9349C74.8264 15.9349 77.9489 14.0668 79.7816 14.9667C81.6156 15.866 88.0074 20.0745 88.0074 20.0745C88.0074 20.0745 80.3779 14.0541 79.7539 12.2923C79.1308 10.532 79.6552 9.01643 79.6552 9.01643C79.6552 9.01643 76.827 11.4121 74.6167 10.3371C72.4086 9.26083 62.3794 2.50937 46.013 0.355934C29.6457 -1.79841 23.5982 6.32532 22.7799 10.9716C21.9664 15.6234 24.055 19.8103 24.055 19.8103Z" fill="#C92628"/>
<path d="M38.5951 43.6538H45.8598C45.8598 43.6538 68.2507 57.9188 83.322 59.0922C98.3933 60.2671 101.658 52.4376 102.041 48.5257C102.426 44.611 101.751 41.9682 101.751 41.9682C101.751 41.9682 106.936 49.4058 102.426 57.9188C97.913 66.4302 75.6415 65.8451 61.5316 58.1094C47.4213 50.3831 51.5612 53.7546 38.5951 43.6538Z" fill="#C92628"/>
<path d="M19.3615 27.9826C18.9357 29.942 18.1334 31.566 16.949 32.849C15.4153 34.5148 13.2838 35.3485 10.5573 35.3485H7.09452L5.53904 42.5369H0L4.6993 20.8237H13.514C16.0227 20.8237 17.7643 21.5724 18.7408 23.0655C19.5872 24.3509 19.7939 25.9879 19.3615 27.9826ZM13.5901 28.0442C13.7672 27.24 13.6709 26.6 13.3046 26.1185C12.954 25.633 12.2214 25.3917 11.1086 25.3917H9.25256L8.08452 30.7827H9.92423C11.1209 30.7827 11.9996 30.5173 12.5639 29.9872C13.069 29.5094 13.4133 28.8627 13.5901 28.0442Z" fill="#00265E"/>
<path d="M23.8604 20.8236L22.9311 25.1174H29.5C30.6538 25.1174 31.4383 25.3672 31.8505 25.8685C32.2874 26.3961 32.4205 27.0504 32.2536 27.8237C32.0862 28.596 31.6704 29.2548 31.0011 29.7968C30.3828 30.2938 29.4921 30.5412 28.3259 30.5412H27.2973L21.7609 30.5227L19.1611 42.5361H24.699L26.5055 34.2017L29.9737 42.5361H36.8694L32.1052 33.6291C33.4241 33.3437 34.5245 32.8358 35.3993 32.1032C36.7701 30.9565 37.665 29.4255 38.0784 27.5046C38.4417 25.829 38.267 24.3705 37.56 23.1312C36.6844 21.5944 34.9901 20.8236 32.4703 20.8236H23.8604Z" fill="#00265E"/>
<path d="M44.7344 42.5369H39.1953L43.8958 20.8243H49.4355L44.7344 42.5369Z" fill="#00265E"/>
<path d="M57.3166 21.0001L49 42.7126H54.5077L59.0238 30.211L61.2338 42.7126H63.4316L68.6855 34.3542L68.9553 25.4515L64.5976 32.5803L62.779 21.0001H57.3166Z" fill="#00265E"/>
<path d="M103.476 31.7517C102.84 34.7005 101.316 37.289 98.9105 39.5153C96.1704 42.0498 92.9249 43.3176 89.1785 43.3176C85.4445 43.3176 82.753 42.0498 81.1073 39.5153C79.6655 37.289 79.2633 34.7005 79.9012 31.7517C80.1915 30.4067 80.7491 29.0287 81.5783 27.6163C82.4026 26.1964 83.364 24.9817 84.4533 23.9759C87.1958 21.439 90.4413 20.1715 94.1874 20.1715C97.9311 20.1715 100.626 21.439 102.273 23.9759C103.715 26.2 104.118 28.7928 103.476 31.7517ZM97.7196 31.7517C98.0488 30.2249 97.8587 28.9051 97.1411 27.7936C96.2184 26.3716 94.8401 25.6599 92.9997 25.6599C91.73 25.6599 90.5001 26.0279 89.3152 26.7575C88.1269 27.4788 87.1849 28.4461 86.4867 29.6532C86.0887 30.3439 85.812 31.0412 85.6605 31.7517C85.3428 33.2168 85.5329 34.522 86.2444 35.68C87.1197 37.1133 88.4939 37.8267 90.364 37.8267C92.2382 37.8267 93.9261 37.1163 95.4309 35.696C96.6342 34.563 97.3955 33.2478 97.7196 31.7517Z" fill="#00265E"/>
<path d="M116.608 22.2238L108.768 22.283L104.273 42.5374H112.101L115.16 28.8966H123.736L125.183 22.2238H116.608Z" fill="#00265E"/>
<path d="M135.976 42.5369H124.054L128.652 21.2934H134.072L130.477 37.9161H136.977L135.976 42.5369Z" fill="#00265E"/>
<path d="M163.914 31.7517C163.278 34.7005 161.763 37.289 159.37 39.5153C156.639 42.0498 153.409 43.3176 149.683 43.3176C145.968 43.3176 143.291 42.0498 141.652 39.5153C140.215 37.289 139.814 34.7005 140.452 31.7517C140.742 30.4067 141.296 29.0287 142.12 27.6163C142.943 26.1964 143.899 24.9817 144.982 23.9759C147.713 21.439 150.943 20.1715 154.67 20.1715C158.398 20.1715 161.077 21.439 162.717 23.9759C164.155 26.2 164.553 28.7928 163.914 31.7517ZM158.184 31.7517C158.512 30.2249 158.323 28.9051 157.606 27.7936C156.692 26.3716 155.321 25.6599 153.486 25.6599C152.221 25.6599 151.003 26.0279 149.819 26.7575C148.639 27.4788 147.7 28.4461 147.004 29.6532C146.61 30.3439 146.334 31.0412 146.181 31.7517C145.866 33.2168 146.06 34.522 146.764 35.68C147.633 37.1133 149.001 37.8267 150.866 37.8267C152.728 37.8267 154.411 37.1163 155.907 35.696C157.103 34.563 157.865 33.2478 158.184 31.7517Z" fill="#00265E"/>
<path d="M110.881 11.5696L109.42 18.3074H163.041L164.008 16.0304L165.875 11.5923V11.5881L160.608 11.5696H110.881Z" fill="#00265E"/>
<path d="M175.712 17.8635C173.559 17.8635 171.806 16.0774 171.806 13.8815C171.806 11.6862 173.559 9.89949 175.712 9.89949C177.867 9.89949 179.618 11.6862 179.618 13.8815C179.618 16.0774 177.867 17.8635 175.712 17.8635ZM175.712 10.1739C173.707 10.1739 172.076 11.8374 172.076 13.8815C172.076 15.9256 173.707 17.5891 175.712 17.5891C177.718 17.5891 179.349 15.9256 179.349 13.8815C179.349 11.8374 177.718 10.1739 175.712 10.1739Z" fill="#00265E"/>
<path d="M177.738 15.894H177.102L175.686 13.9735H174.599V15.894H174.128V11.6254H176.035C176.91 11.6682 177.376 12.0526 177.43 12.7779C177.43 13.5178 177.021 13.9167 176.199 13.9735L177.738 15.894ZM174.599 12.0526V13.5463H175.933C176.603 13.5326 176.938 13.2685 176.938 12.7569C176.924 12.3015 176.589 12.0669 175.933 12.0526H174.599Z" fill="#00265E"/>
</svg>
