<?xml version="1.0" standalone="no"?>
<!DOCTYPE svg PUBLIC "-//W3C//DTD SVG 20010904//EN"
 "http://www.w3.org/TR/2001/REC-SVG-20010904/DTD/svg10.dtd">
<svg version="1.0" xmlns="http://www.w3.org/2000/svg"
 width="1216.000000pt" height="1216.000000pt" viewBox="0 0 1216.000000 1216.000000"
 preserveAspectRatio="xMidYMid meet">
<metadata>
Created by potrace 1.14, written by Peter Selinger 2001-2017
</metadata>
<g transform="translate(0.000000,1216.000000) scale(0.100000,-0.100000)"
fill="#000000" stroke="none">
<path d="M10164 10316 c-38 -41 -112 -120 -164 -176 -52 -56 -150 -159 -217
-229 -68 -69 -123 -126 -123 -127 0 -2 -371 -369 -430 -425 -120 -116 -272
-249 -282 -249 -5 0 -8 -7 -8 -15 0 -8 -4 -15 -10 -15 -5 0 -18 -8 -28 -17
-10 -10 -29 -27 -43 -38 -70 -58 -135 -111 -144 -118 -5 -4 -37 -28 -69 -52
-179 -137 -317 -210 -416 -221 -41 -5 -61 2 -220 79 -201 97 -249 119 -420
194 -118 52 -515 213 -524 213 -3 0 -17 5 -33 12 -15 6 -32 12 -38 14 -34 9
-208 73 -213 78 -3 3 -14 6 -24 6 -10 0 -26 4 -36 9 -9 5 -48 19 -87 31 -38
12 -77 24 -85 27 -8 4 -19 7 -25 8 -5 2 -64 19 -129 40 -66 21 -127 39 -135
40 -9 2 -17 4 -18 5 -2 2 -7 4 -13 5 -5 1 -11 3 -12 4 -2 2 -14 4 -27 7 -14 2
-44 11 -67 19 -24 8 -53 16 -66 19 -30 6 -259 66 -278 73 -8 3 -23 8 -32 9 -9
2 -72 17 -140 33 -238 57 -263 63 -288 66 -14 2 -56 11 -95 20 -80 19 -90 21
-136 29 -19 3 -63 12 -99 20 -36 8 -81 17 -100 20 -19 3 -48 8 -65 12 -16 3
-39 7 -50 8 -11 2 -31 6 -45 9 -14 4 -41 9 -60 12 -19 2 -46 7 -60 10 -13 2
-42 7 -65 10 -22 3 -67 11 -99 16 -33 6 -78 13 -100 15 -23 3 -50 8 -61 11
-11 3 -31 7 -45 9 -53 5 -116 14 -140 18 -38 7 -179 27 -235 33 -74 7 -100 11
-100 12 0 1 -20 4 -45 6 -25 2 -79 7 -120 10 -118 11 -158 14 -265 21 -115 7
-519 7 -615 0 -36 -3 -99 -7 -140 -10 -68 -4 -285 -30 -336 -40 -12 -3 -38 -7
-58 -10 -19 -3 -55 -10 -78 -15 -24 -6 -59 -13 -78 -16 -19 -3 -42 -8 -50 -10
-8 -2 -26 -6 -40 -9 -38 -8 -303 -87 -315 -94 -5 -4 -16 -7 -23 -8 -13 -2
-116 -42 -177 -69 -104 -45 -280 -136 -352 -182 -47 -29 -87 -53 -90 -53 -2 0
-9 -5 -16 -10 -7 -6 -55 -42 -107 -81 -110 -83 -106 -79 -230 -203 -127 -127
-150 -153 -150 -165 0 -6 -4 -11 -8 -11 -5 0 -24 -21 -42 -47 -19 -27 -39 -51
-44 -55 -6 -4 -7 -8 -2 -8 5 0 0 -10 -11 -22 -11 -13 -29 -39 -39 -58 -10 -19
-22 -37 -25 -40 -12 -11 -100 -194 -123 -260 -44 -122 -67 -225 -82 -370 -9
-84 -8 -305 1 -400 13 -133 13 -135 15 -135 1 0 4 -16 6 -35 9 -70 77 -337
101 -400 4 -8 7 -18 8 -22 2 -5 4 -10 5 -13 1 -3 3 -8 4 -12 7 -29 51 -135 57
-139 5 -3 9 -13 9 -23 0 -33 25 -42 112 -43 46 0 88 1 93 2 6 1 15 2 20 1 14
-3 608 -3 620 -1 6 1 15 2 20 1 8 -2 581 -3 623 -1 15 0 15 4 -13 180 -21 138
-40 478 -28 502 2 5 6 50 8 100 3 51 7 104 10 118 8 35 18 110 19 138 1 12 5
22 10 22 5 0 7 3 3 6 -5 6 5 47 46 179 11 39 22 72 23 75 17 60 103 225 163
313 100 145 200 244 355 348 77 51 217 125 346 181 112 49 494 164 564 170 14
1 26 6 26 11 0 4 4 6 8 3 4 -3 26 -1 48 4 46 11 98 20 137 25 16 2 40 6 55 9
15 3 50 8 77 12 28 3 61 8 75 10 23 3 95 11 175 19 174 19 788 26 975 11 47
-3 108 -8 135 -10 66 -6 191 -19 293 -32 26 -3 61 -8 77 -9 17 -2 30 -4 30 -5
0 -2 16 -4 90 -16 61 -9 100 -16 165 -31 8 -1 25 -4 38 -5 12 -1 22 -6 22 -11
0 -4 4 -6 9 -3 10 7 210 -42 346 -84 55 -17 105 -32 110 -33 6 -2 15 -5 20 -8
6 -4 35 -14 65 -24 128 -42 454 -197 600 -285 36 -22 80 -47 98 -57 17 -9 32
-20 32 -25 0 -4 5 -8 11 -8 6 0 24 -10 39 -22 15 -13 38 -30 50 -38 37 -24
150 -119 208 -174 83 -80 222 -252 222 -275 0 -5 4 -11 8 -13 18 -7 86 -161
107 -243 31 -120 33 -204 10 -430 -7 -70 -16 -152 -20 -183 -3 -18 -7 -54 -10
-80 -3 -26 -8 -54 -10 -62 -2 -8 -7 -40 -10 -70 -3 -30 -8 -66 -10 -80 -2 -14
-6 -45 -10 -70 -3 -25 -8 -57 -11 -72 -3 -15 -7 -39 -9 -55 -2 -15 -9 -62 -16
-103 -6 -41 -12 -87 -11 -102 0 -16 -5 -28 -10 -28 -6 0 -8 -6 -5 -13 3 -8 1
-33 -3 -58 -5 -24 -11 -62 -14 -84 -4 -22 -11 -65 -16 -95 -5 -30 -12 -71 -14
-90 -3 -19 -7 -46 -10 -60 -3 -13 -8 -42 -11 -65 -3 -22 -8 -47 -10 -55 -2 -8
-6 -33 -10 -55 -9 -62 -13 -89 -41 -245 -14 -80 -27 -156 -29 -170 -4 -31 -12
-78 -26 -150 -12 -64 -20 -112 -35 -200 -3 -14 -9 -47 -14 -75 -5 -27 -12 -67
-14 -87 -2 -20 -7 -45 -10 -55 -8 -26 -17 -74 -21 -108 -2 -16 -13 -82 -25
-145 -12 -63 -24 -124 -26 -135 -3 -16 2 -14 22 10 13 17 30 37 37 45 6 8 31
39 54 70 23 30 51 66 62 80 11 14 29 36 40 50 114 145 147 185 153 188 5 2 8
8 8 13 0 5 8 17 18 27 9 11 24 28 32 38 8 11 51 63 95 118 44 54 89 110 100
125 11 14 24 31 30 37 5 6 26 30 45 54 45 56 146 178 173 210 12 14 51 61 87
105 36 44 70 85 76 90 7 6 38 42 69 80 32 39 65 77 74 86 9 9 30 33 46 53 17
21 49 58 73 82 23 25 42 48 42 50 0 3 15 19 33 38 17 18 66 70 107 116 147
163 388 399 510 499 14 11 30 25 37 30 33 29 114 71 154 82 l45 12 129 -68
c72 -37 135 -71 140 -75 6 -4 36 -21 68 -39 31 -17 81 -44 110 -60 28 -16 68
-37 87 -47 19 -11 37 -21 40 -24 8 -8 61 -37 103 -57 20 -10 37 -21 37 -25 0
-5 4 -8 10 -8 5 0 85 -43 177 -96 93 -53 188 -108 213 -122 25 -14 77 -44 115
-67 39 -22 77 -44 85 -48 8 -4 24 -13 35 -20 11 -7 52 -30 90 -52 39 -21 72
-43 73 -47 2 -4 9 -8 16 -8 8 0 25 -9 40 -21 14 -11 26 -18 26 -14 0 3 15 -5
33 -18 17 -13 39 -26 47 -29 8 -3 57 -31 109 -62 51 -31 96 -56 99 -56 3 0 14
-8 25 -18 24 -20 14 1 -15 33 -10 11 -31 34 -46 51 -15 17 -61 68 -102 113
-98 108 -103 114 -185 206 -38 43 -75 83 -80 89 -9 9 -207 235 -240 273 -15
17 -127 143 -152 170 -11 13 -35 42 -53 63 -18 21 -42 50 -53 63 -12 13 -47
52 -77 87 -30 35 -65 75 -77 89 -13 14 -26 31 -31 36 -4 6 -44 53 -88 105 -44
52 -89 106 -99 119 -11 14 -30 35 -42 48 -13 13 -23 28 -23 33 0 4 -3 10 -8
12 -8 3 -98 114 -182 223 -30 39 -57 72 -62 73 -4 2 -8 8 -8 12 0 5 -20 37
-44 72 -64 92 -77 131 -72 213 2 39 5 70 6 70 1 0 3 18 4 40 2 22 6 54 10 70
3 17 8 41 11 55 5 26 9 44 30 143 3 12 12 51 21 86 9 36 18 72 20 80 8 36 65
242 89 326 14 50 28 101 31 114 3 13 13 49 24 80 21 62 70 227 75 251 2 8 10
34 18 57 9 22 13 44 10 47 -4 3 -1 6 5 6 7 0 12 9 12 20 0 10 4 29 9 42 12 29
102 308 106 328 2 8 17 52 33 98 17 45 29 82 26 82 -3 0 0 9 6 21 6 11 13 28
15 37 2 9 15 48 28 85 14 37 25 69 26 70 0 4 13 43 22 65 5 12 7 22 5 22 -2 0
-34 -33 -72 -74z"/>
<path d="M11711 5238 c11 -36 17 -64 23 -118 3 -19 5 -35 6 -35 2 0 7 -38 15
-125 8 -79 14 -582 7 -594 -4 -7 -11 -73 -14 -136 -1 -29 -29 -166 -44 -220
-33 -119 -133 -357 -155 -371 -6 -3 -10 -10 -10 -15 2 -14 -113 -183 -161
-239 -44 -50 -162 -169 -214 -216 -31 -27 -211 -159 -218 -159 -2 0 -33 -17
-67 -39 -35 -21 -100 -55 -144 -75 -44 -21 -92 -44 -107 -52 -16 -8 -28 -12
-28 -8 0 3 -7 1 -15 -6 -8 -7 -15 -9 -15 -5 0 4 -6 3 -12 -2 -24 -19 -298
-106 -373 -119 -11 -1 -49 -10 -85 -18 -36 -8 -83 -17 -105 -20 -22 -4 -52 -9
-66 -11 -246 -43 -686 -61 -1044 -42 -117 7 -145 9 -270 23 -33 3 -76 8 -95
10 -19 2 -48 5 -65 8 -16 3 -50 8 -75 11 -25 3 -58 8 -75 11 -16 4 -40 8 -52
10 -13 2 -33 6 -45 8 -13 2 -39 7 -58 11 -19 4 -44 8 -55 10 -11 1 -40 7 -65
13 -25 6 -62 13 -84 16 -21 4 -42 8 -45 11 -4 2 -41 11 -82 20 -41 9 -81 18
-89 20 -8 2 -42 11 -75 20 -33 9 -87 23 -120 31 -33 9 -67 18 -75 22 -8 3 -19
6 -25 6 -19 3 -316 92 -365 111 -19 7 -87 29 -150 50 -63 20 -124 40 -135 45
-11 5 -38 14 -60 21 -22 6 -44 14 -50 18 -5 3 -14 7 -20 8 -14 3 -109 37 -190
68 -38 15 -80 30 -93 32 -12 3 -25 9 -28 14 -3 5 -12 9 -20 9 -8 0 -33 8 -57
19 -23 10 -96 40 -162 66 -125 50 -190 77 -239 101 -16 8 -33 14 -38 14 -8 0
-33 10 -143 60 -78 35 -110 48 -115 47 -3 -1 -18 6 -35 15 -33 18 -184 88
-189 88 -2 0 -56 25 -121 55 -64 30 -118 55 -119 55 -2 0 -61 28 -132 62 -71
34 -132 61 -136 60 -5 -1 -8 2 -8 8 0 5 -5 10 -11 10 -12 0 -586 285 -606 301
-7 6 -13 8 -13 3 0 -5 -4 -4 -8 2 -4 5 -38 26 -77 46 -80 40 -245 127 -322
169 -64 35 -157 86 -198 108 -16 9 -32 18 -35 21 -3 3 -21 13 -40 22 -44 21
-133 71 -140 78 -3 3 -18 12 -35 20 -16 8 -58 32 -93 52 -34 21 -64 38 -66 38
-2 0 -60 33 -129 74 -69 41 -128 72 -131 68 -3 -3 -6 0 -6 7 0 6 -10 16 -22
21 -13 5 -41 21 -63 35 -22 14 -49 29 -61 34 -12 5 -264 9 -592 9 -486 0 -570
-2 -565 -14 3 -8 9 -14 13 -14 4 0 23 -12 43 -27 20 -16 58 -44 84 -63 26 -19
50 -37 53 -40 3 -3 86 -66 185 -140 99 -74 182 -138 183 -142 2 -5 10 -8 17
-8 7 0 15 -3 17 -7 2 -5 34 -30 71 -58 37 -27 83 -61 101 -75 18 -14 46 -35
62 -47 84 -63 420 -304 482 -346 26 -17 49 -35 50 -39 2 -4 10 -8 18 -8 8 0
14 -4 14 -10 0 -5 7 -10 15 -10 8 0 15 -4 15 -10 0 -5 6 -10 13 -10 7 0 22 -8
33 -17 11 -10 31 -24 45 -32 13 -8 69 -42 124 -76 55 -34 125 -75 155 -91 30
-16 58 -33 62 -39 4 -5 8 -6 8 -1 0 5 6 3 13 -3 26 -21 300 -161 316 -161 5 0
11 -3 13 -7 4 -10 90 -53 105 -53 6 0 13 -3 15 -8 1 -4 127 -69 278 -145 151
-76 289 -145 305 -154 17 -9 39 -21 50 -26 113 -58 452 -234 620 -324 157 -83
526 -263 540 -263 3 0 24 -9 48 -19 72 -33 222 -94 237 -97 3 0 19 -6 35 -13
17 -7 77 -30 135 -51 58 -21 116 -42 130 -48 14 -5 27 -10 30 -10 3 0 19 -6
35 -12 17 -6 39 -13 50 -14 12 -1 25 -5 30 -8 9 -5 78 -29 100 -34 6 -2 73
-22 150 -44 77 -23 147 -43 155 -45 8 -2 78 -19 155 -39 164 -41 229 -56 270
-62 17 -3 44 -9 60 -14 17 -4 48 -12 70 -16 22 -4 47 -9 55 -11 75 -14 302
-55 335 -59 17 -3 41 -6 55 -8 14 -2 48 -7 75 -11 28 -3 61 -8 75 -11 37 -7
119 -16 167 -18 24 0 43 -4 43 -7 0 -3 24 -7 53 -8 53 -3 102 -8 102 -11 0 -1
32 -3 70 -5 39 -3 91 -7 116 -9 227 -25 899 -26 1149 -1 19 2 64 6 100 9 36 4
81 8 100 11 19 2 55 7 80 10 52 6 223 33 260 41 14 3 34 6 45 8 51 9 91 17
107 22 9 3 27 7 40 10 13 3 34 7 48 10 37 8 41 9 90 23 178 49 428 138 520
186 16 9 33 15 36 14 4 0 10 3 13 8 3 4 24 17 46 28 51 25 166 95 183 112 7 7
17 13 22 13 5 0 15 6 22 13 7 6 36 30 63 51 101 80 225 216 283 311 83 135
219 448 236 540 1 6 5 16 9 23 5 6 6 12 3 12 -3 0 -1 11 4 26 6 14 12 39 15
57 3 18 11 50 17 72 5 22 11 51 13 65 1 14 5 41 8 60 15 93 20 169 22 330 1
96 0 179 -3 183 -2 5 -6 30 -8 55 -8 98 -26 215 -44 282 -5 19 -11 44 -13 55
-6 31 -27 107 -38 135 -5 14 -11 34 -14 45 -6 30 -41 124 -48 132 -4 3 -7 12
-7 19 0 8 -11 38 -25 69 -13 30 -24 56 -24 58 4 14 -164 307 -176 307 -2 0 1
-15 6 -32z"/>
</g>
</svg>
