<svg xmlns="http://www.w3.org/2000/svg">
    <symbol id="icon_mail" viewBox="0 0 24 24">
        <g>
            <path d="M20 4H4C2.89543 4 2 4.89543 2 6V18C2 19.1046 2.89543 20 4 20H20C21.1046 20 22 19.1046 22 18V6C22 4.89543 21.1046 4 20 4Z"  stroke-linecap="round" stroke-linejoin="round"/>
            <path d="M22 7L13.03 12.7C12.7213 12.8934 12.3643 12.996 12 12.996C11.6357 12.996 11.2787 12.8934 10.97 12.7L2 7"  stroke-linecap="round" stroke-linejoin="round"/>
        </g>
    </symbol>
    <symbol id="icon_tel" viewBox="0 0 22 22">
        <g>
            <path d="M20.9994 15.9738V18.9846C21.0005 19.2642 20.9432 19.5408 20.831 19.7969C20.7188 20.053 20.5542 20.2829 20.3478 20.4719C20.1415 20.6608 19.8978 20.8047 19.6325 20.8942C19.3672 20.9838 19.0861 21.017 18.8072 20.9919C15.7128 20.6563 12.7404 19.601 10.1289 17.9108C7.69921 16.3699 5.63926 14.3141 4.09534 11.8892C2.39586 9.27099 1.33824 6.29008 1.00816 3.18795C0.983033 2.91042 1.01608 2.63071 1.1052 2.36663C1.19432 2.10254 1.33757 1.85987 1.52581 1.65407C1.71405 1.44826 1.94317 1.28383 2.19858 1.17123C2.45398 1.05864 2.73008 1.00036 3.0093 1.0001H6.02608C6.5141 0.995304 6.98722 1.16778 7.35725 1.48537C7.72727 1.80297 7.96896 2.24401 8.03727 2.72629C8.1646 3.68982 8.40074 4.63587 8.74118 5.54642C8.87648 5.90563 8.90576 6.29602 8.82556 6.67133C8.74536 7.04665 8.55903 7.39115 8.28867 7.66402L7.01156 8.93859C8.44308 11.4512 10.5276 13.5315 13.0451 14.9602L14.3222 13.6856C14.5956 13.4158 14.9408 13.2298 15.3169 13.1498C15.6929 13.0698 16.0841 13.099 16.444 13.234C17.3564 13.5738 18.3043 13.8095 19.2698 13.9365C19.7582 14.0053 20.2044 14.2509 20.5233 14.6265C20.8422 15.0021 21.0116 15.4817 20.9994 15.9738Z" stroke-linecap="round" stroke-linejoin="round"/>
        </g>
    </symbol>
    <symbol id="icon_telegram" viewBox="0 0 22 18">
        <g>
              <path d="M20.6745 0.541107C20.6765 0.54064 20.6786 0.54017 20.6807 0.539692C20.752 0.523451 20.8477 0.501681 20.9723 0.500082C21.1232 0.498148 21.2452 0.529654 21.3308 0.59843C21.412 0.664344 21.4595 0.761507 21.4833 0.876775C21.5004 0.959359 21.5008 1.03117 21.4996 1.06596L18.1132 16.8352C18.0353 17.1771 17.9235 17.3339 17.8459 17.4051C17.7745 17.4706 17.6966 17.4967 17.6027 17.4997C17.3849 17.5068 17.1529 17.3867 17.0917 17.3513L12.1814 13.8597L12.181 13.8594C12.0404 13.7597 11.8706 13.7109 11.6998 13.7194C11.5289 13.728 11.3646 13.7935 11.2346 13.9073L11.2345 13.9074L8.8183 16.0222L9.15159 12.1314C9.72842 11.6254 11.8574 9.75645 13.9233 7.92858C15.0052 6.97143 16.0705 6.02476 16.887 5.29072C17.295 4.92387 17.6421 4.60894 17.8985 4.3719C18.0265 4.25355 18.1336 4.15302 18.215 4.07438C18.2865 4.00532 18.3624 3.93026 18.4073 3.87432M20.6745 0.541107L17.6008 2.7731C17.6527 2.76469 17.7341 2.75353 17.8235 2.74983C17.903 2.74654 18.0353 2.74652 18.1672 2.7865C18.2965 2.82567 18.5759 2.9599 18.6111 3.30423C18.6375 3.56255 18.4935 3.76712 18.4073 3.87432M20.6745 0.541107L0.767323 8.08523M20.6745 0.541107L0.767323 8.08523M18.4073 3.87432C18.4073 3.87443 18.4072 3.87454 18.4071 3.87465L18.0175 3.56126L18.4076 3.87399C18.4075 3.8741 18.4074 3.87421 18.4073 3.87432ZM17.5819 3.29475C17.5746 3.30203 17.5663 3.31024 17.5569 3.31944L17.5861 3.30162C17.5981 3.29425 17.6107 3.28789 17.6238 3.28258C17.6267 3.27065 17.6298 3.26066 17.6326 3.25278C17.6327 3.2525 17.6328 3.25222 17.6329 3.25194C17.6355 3.24466 17.6379 3.23926 17.6394 3.23591C17.6426 3.22882 17.6447 3.22518 17.6447 3.22517C17.6447 3.22516 17.6402 3.23256 17.6279 3.24788L17.6274 3.24851C17.6279 3.24779 17.627 3.24873 17.6244 3.25152C17.6188 3.25731 17.6056 3.27108 17.5819 3.29475ZM17.5819 3.29475L17.3253 2.87501C17.3253 2.87499 17.3253 2.87498 17.3254 2.87496L17.5819 3.29475ZM0.767323 8.08523C0.772729 8.08209 0.777344 8.07949 0.781033 8.07744C0.770992 8.08296 0.76063 8.08774 0.750034 8.09178L0.767323 8.08523ZM1.01506 8.54272C1.01445 8.54249 1.01383 8.54226 1.01323 8.54202L1.00897 8.54049L1.00887 8.54077M1.01506 8.54272L1.00887 8.54077M1.01506 8.54272C1.01578 8.543 1.0165 8.54328 1.01723 8.54355L0.946712 8.7287M1.01506 8.54272L1.01592 8.543L1.0253 8.54638L0.855592 9.0167L0.946712 8.7287M1.00887 8.54077L1.00642 8.53999L0.986978 8.60143M1.00887 8.54077L0.986978 8.60143M0.986978 8.60143L0.839263 9.01081L0.946712 8.7287M0.986978 8.60143L0.946712 8.7287M5.68089 10.2655L5.68069 10.2639L5.68057 10.2629L5.65302 10.0319C5.68575 10.028 5.71904 10.0311 5.75076 10.041L5.64957 10.009L5.55851 10.0647M5.68089 10.2655L5.68088 10.2655M5.68089 10.2655L5.81865 10.4917L5.68099 10.2663M5.68089 10.2655L5.68099 10.2663M5.68088 10.2655L5.68069 10.2639L5.68057 10.2629L5.65301 10.0319C5.62001 10.0358 5.58776 10.0468 5.55851 10.0647M5.68088 10.2655L5.68098 10.2663M5.68088 10.2655L5.68042 10.2647L5.68013 10.2643L5.55851 10.0647M5.55851 10.0647L5.55796 10.065L5.67999 10.2647L5.68028 10.2652L5.68098 10.2663M5.68098 10.2663L5.71224 10.5284L5.68099 10.2663M5.68098 10.2663L5.68099 10.2663M0.495651 8.31937C0.498209 8.31304 0.50654 8.299 0.52317 8.27892C0.509952 8.26657 0.500893 8.25644 0.495042 8.24884C0.491961 8.24483 0.490791 8.24288 0.490756 8.2429C0.490673 8.24295 0.496571 8.25342 0.499042 8.27344C0.500593 8.28601 0.500098 8.29745 0.49872 8.30646C0.497398 8.3151 0.495572 8.31956 0.495651 8.31937ZM17.8486 3.73303C17.8424 3.73903 17.836 3.74515 17.8294 3.75141C17.8413 3.75031 17.8533 3.74945 17.8649 3.74897C17.8892 3.74797 17.8999 3.74914 17.8999 3.74905C17.8999 3.74896 17.8917 3.7479 17.8773 3.74353C17.8714 3.74174 17.8614 3.7385 17.8486 3.73303ZM8.5237 16.5599L8.52961 16.5569L8.5237 16.5599Z" />
        </g>
    </symbol>
    <symbol id="icon_search" viewBox="0 0 24 24">
        <g>
            <path d="M11 19C15.4183 19 19 15.4183 19 11C19 6.58172 15.4183 3 11 3C6.58172 3 3 6.58172 3 11C3 15.4183 6.58172 19 11 19Z"  stroke-linecap="round" stroke-linejoin="round"/>
            <path d="M21 21L16.7 16.7" stroke-linecap="round" stroke-linejoin="round"/>
        </g>
    </symbol>
    <symbol id="icon_menu" viewBox="0 0 24 24">
        <g>
            <rect width="4.8" height="4.8"/>
            <rect y="9.6001" width="4.8" height="4.8"/>
            <rect y="19.2" width="4.8" height="4.8"/>
            <rect x="9.59998" width="4.8" height="4.8"/>
            <rect x="9.59998" y="9.6001" width="4.8" height="4.8"/>
            <rect x="9.59998" y="19.2" width="4.8" height="4.8"/>
            <rect x="19.2" width="4.8" height="4.8"/>
            <rect x="19.2" y="9.6001" width="4.8" height="4.8"/>
            <rect x="19.2" y="19.2" width="4.8" height="4.8"/>
        </g>
    </symbol>
    <symbol id="icon_menu_active" viewBox="0 0 24 24">
        <g>
            <rect width="4.8" height="4.79999"/>
            <rect y="19.2" width="4.8" height="4.79999"/>
            <rect x="9.6001" y="9.6001" width="4.8" height="4.79999"/>
            <rect x="19.2002" width="4.8" height="4.79999"/>
            <rect x="19.2002" y="19.2" width="4.8" height="4.79999"/>
            <rect x="5" y="5" width="4.8" height="4.79999"/>
            <rect x="14" y="5" width="4.8" height="4.79999"/>
            <rect x="14" y="14" width="4.8" height="4.79999"/>
            <rect x="5" y="14" width="4.8" height="4.79999"/>
        </g>
    </symbol>
    <symbol id="icon_chevron" viewBox="0 0 8 14">
        <g>
            <path d="M1 1L7 7L1 13"/>
        </g>
    </symbol>
</svg>